<?xml version="1.0" encoding="utf-8"?>
<svg width="300" height="300" viewBox="0 0 300 300" version="1.1" id="svg1" xmlns="http://www.w3.org/2000/svg">
  <g id="layer1" transform="matrix(1.388682, 0, 0, 1.388682, -58.302238, -58.301399)">
    <path id="path6" style="fill-opacity: 1; fill-rule: evenodd; stroke: rgb(0, 0, 0); stroke-width: 1.9633; stroke-opacity: 0; fill: rgb(255, 255, 255);" d="m 146.20936,54.145481 c -48.059137,0.09705 -93.234339,33.014096 -102.595701,82.185549 -9.266624,48.67389 21.833606,99.37195 71.621101,108.26952 30.89002,5.5204 62.6621,-7.57293 80.291,-31.96092 l -36.64062,-32.06055 c -5.33757,10.9405 -18.32375,17.63839 -30.73828,16.9121 -24.16933,-1.41397 -39.950492,-25.30805 -37.423818,-48.24609 3.367617,-30.57277 33.866848,-50.142251 63.249988,-45.97461 36.97572,5.24456 60.37114,42.43962 54.52344,78.25782 -1.90399,11.66224 -6.48888,22.14431 -12.97071,31.11133 l 36.85158,32.24413 c 11.41275,-14.79585 19.44241,-32.13694 23.2285,-50.44141 12.72488,-61.52012 -26.1131,-125.790906 -88.71874,-138.281243 -6.88723,-1.37406 -13.81214,-2.029491 -20.67774,-2.015626 z m 12.67578,126.433599 c 1.74334,-3.57331 2.67956,-7.59567 2.50196,-11.96485 -0.4033,-9.92104 -9.19902,-21.66874 -20.32617,-18.23437 -2.96944,0.9165 -7.01235,5.64405 -6.35743,8.92968 l 7.5254,6.69532 z"/>
  </g>
</svg>